inDegrees=no
num_controls=7
num_derivatives=13
num_iterations=138
num_multipliers=7
num_parameters=0
num_slacks=7
num_states=26
objective=0.469891
objective_accelerations=0.062572
objective_balance=0.002051
objective_effort=0.019988
objective_height=0.375708
objective_ligament=0.009573
solver_duration=1898.205994
status=Solve_Succeeded
success=true
DataType=double
version=3
OpenSimVersion=4.5
endheader
time	/jointset/ground_pelvis/pelvis_tilt/value	/jointset/ground_pelvis/pelvis_tx/value	/jointset/ground_pelvis/pelvis_ty/value	/jointset/hip_l/hip_flexion_l/value	/jointset/hip_l/hip_adduction_l/value	/jointset/hip_l/hip_rotation_l/value	/jointset/back/lumbar_extension/value	/jointset/patellofemoral_l/patellar_flexion_l/value	/jointset/knee_l/knee_flexion_l/value	/jointset/knee_l/knee_adduction_l/value	/jointset/knee_l/knee_rotation_l/value	/jointset/ankle_l/ankle_angle_l/value	/jointset/subtalar_l/subtalar_angle_l/value	/jointset/ground_pelvis/pelvis_tilt/speed	/jointset/ground_pelvis/pelvis_tx/speed	/jointset/ground_pelvis/pelvis_ty/speed	/jointset/hip_l/hip_flexion_l/speed	/jointset/hip_l/hip_adduction_l/speed	/jointset/hip_l/hip_rotation_l/speed	/jointset/back/lumbar_extension/speed	/jointset/patellofemoral_l/patellar_flexion_l/speed	/jointset/knee_l/knee_flexion_l/speed	/jointset/knee_l/knee_adduction_l/speed	/jointset/knee_l/knee_rotation_l/speed	/jointset/ankle_l/ankle_angle_l/speed	/jointset/subtalar_l/subtalar_angle_l/speed	/forceset/tau_hip_flexion_l	/forceset/tau_hip_adduction_l	/forceset/tau_hip_rotation_l	/forceset/tau_knee_flexion_l	/forceset/tau_ankle_angle_l	/forceset/tau_subtalar_angle_l	/forceset/tau_lumbar_extension	lambda_cid13_p0	lambda_cid13_p1	lambda_cid13_p2	lambda_cid13_p3	lambda_cid13_p4	lambda_cid13_p5	lambda_cid14_p0	/jointset/ground_pelvis/pelvis_tilt/accel	/jointset/ground_pelvis/pelvis_tx/accel	/jointset/ground_pelvis/pelvis_ty/accel	/jointset/hip_l/hip_flexion_l/accel	/jointset/hip_l/hip_adduction_l/accel	/jointset/hip_l/hip_rotation_l/accel	/jointset/back/lumbar_extension/accel	/jointset/patellofemoral_l/patellar_flexion_l/accel	/jointset/knee_l/knee_flexion_l/accel	/jointset/knee_l/knee_adduction_l/accel	/jointset/knee_l/knee_rotation_l/accel	/jointset/ankle_l/ankle_angle_l/accel	/jointset/subtalar_l/subtalar_angle_l/accel	gamma_cid13_p0	gamma_cid13_p1	gamma_cid13_p2	gamma_cid13_p3	gamma_cid13_p4	gamma_cid13_p5	gamma_cid14_p0
1.5	-0.554031476677895	-0.03891543405293704	0.7920691776176687	1.196190794677163	-0.3481133020341877	-0.1182593712148497	-0.3421681240794732	0.5632224667491008	0.5632224667491132	-0.06071516057699295	-0.174499805125697	0.01596120770991508	0.0787606227397535	1.065537324812914	0.4962257979610044	0.4664004356369525	-2.7945038439064	-0.00301379218551468	-0.5166441182517875	0.6015878770340012	-1.532796123170762	-1.532796123170734	-0.213738572079363	0.00212320020944447	0.08649082688828152	0.02869083226437421	-0.2034650455664659	0.01219041459326251	0.007892920354423873	-0.06201351923295987	0.02800228606411807	0.01466478158709472	0.1659985827529141	-14.58637566037157	-6.365852812053706	3.647630018174675	-6.143652380605402	-430.6151380231065	-64.86222459634969	-20.30010697425418	0.8146050297328626	0.8347272559012289	-0.6043161565274566	-1.711831937514847	0.2397373488372846	-0.2867371786763238	1.837158137737255	-0.5572315870179761	-0.5572315870179777	-0.3273961423929852	0.1450374582392402	0.2872553543253716	0.3364053833627108	3.856729099803261e-09	1.364038023021423e-06	-2.335422106216536e-08	2.725415817287486e-07	2.739626631420933e-07	-1.309781592817328e-07	2.341020055285242e-07
1.51	-0.5433360194336027	-0.03391201870846912	0.7967020382832022	1.168162376722756	-0.3481328634859348	-0.1234405692973068	-0.336062503195531	0.5478683009768893	0.5478683009769372	-0.06287120110700382	-0.1744730762720035	0.01684007942061353	0.07906279793958954	1.073376004193858	0.5043842579408917	0.4600701935245353	-2.810781383254271	-0.0008819797919683112	-0.5195406527667216	0.6194420089646734	-1.537835943212411	-1.537835943212456	-0.2174271276005477	0.00324664641865901	0.08928193040401083	0.0317611142026237	-0.1966111730169355	0.01177388162933843	0.008220730597545101	-0.06041006342480263	0.02496413387633143	0.01351176796999045	0.1608969692013242	-15.42953262613222	-5.913332402905647	3.79920945105641	-5.394856031245297	-426.8027013081398	-64.3661569995139	-20.8015684552134	0.7418175502294899	0.7954942676889413	-0.6625091563034018	-1.525915960280763	0.2022658472603819	-0.2826266815149833	1.745397102245015	-0.4472576700610801	-0.4472576700719673	-0.383042697992462	0.09940464938584531	0.2748335217853768	0.2947884494805021	6.859894873255708e-08	1.227815933300354e-06	-5.405041939450226e-07	2.274604527600132e-07	4.055717064273926e-07	-1.264797096477333e-07	2.89693816457501e-07
1.52	-0.5325675117639099	-0.02882920098447108	0.8012685703440705	1.139983143169499	-0.3481306342812172	-0.1286490357436339	-0.3297811697159795	0.532469756912779	0.5324697569128943	-0.06506281868038423	-0.1744344316667338	0.01774682130078718	0.07939616572889295	1.08014740989298	0.5121062738670272	0.4531347147039446	-2.824666963676447	0.001344339107459672	-0.5220977910261769	0.6367303961558602	-1.541671781546966	-1.541671781547084	-0.2208539807621816	0.004506350512808545	0.09206486078328763	0.03492935015785137	-0.1897573004674017	0.01135734866542177	0.008548540840866571	-0.05880660761664877	0.02192598168854697	0.01235875435289218	0.1557953556497345	-16.27641060966435	-5.460925615590847	3.951681625955207	-4.636923166697543	-423.0467011014167	-63.93120607143521	-21.28113641615766	0.6011502933684909	0.7474384451508745	-0.7253634981621188	-1.233440152376093	0.2586386500136182	-0.2188579275804685	1.724009189840159	-0.3164352455991828	-0.3164352455991722	-0.2750556704828108	0.1722890352263468	0.2856207270348896	0.3559961867583715	9.983082066900607e-08	1.221054246115937e-06	-7.878347272122797e-07	2.099345698881821e-07	4.872009223330712e-07	-1.092390426946884e-07	3.230998559325581e-07
1.53	-0.521736626031243	-0.02367136378733559	0.8057628156144218	1.111676856425274	-0.3481058467809222	-0.1338816676535566	-0.3233300130224666	0.5170387775244465	0.5170387775245358	-0.06728763062253461	-0.1743828494513848	0.01868131866641142	0.07976151652485955	1.085845133132919	0.5193855518885471	0.4456199798447224	-2.836185920266139	0.003614116654868427	-0.5243499267165417	0.6533911901120445	-1.544316039060142	-1.544316039060185	-0.2240960697533476	0.005842054143638822	0.09483691988033839	0.03814271780378588	-0.1827939286997393	0.01069983323234592	0.008845656949427981	-0.05761046795322518	0.01956323200776935	0.01098368552067895	0.1506053419577044	-16.92746959175894	-4.928861457312457	4.071458292386741	-4.038551512537425	-419.4696837924835	-63.4111350493105	-21.73646119137538	0.5264260589349857	0.7068760254500747	-0.7785762084563665	-1.050411310742223	0.2111210918981731	-0.2163230076660309	1.620651633278058	-0.2072800845832666	-0.2072800845721221	-0.346703659459708	0.1188054849902651	0.2733858092897575	0.3041552442466584	9.54579481781316e-08	1.35184423662671e-06	-7.484821058879647e-07	2.216861359943116e-07	5.15726571647903e-07	-7.845976984015802e-08	3.329335132378255e-07
1.54	-0.5108542945222511	-0.01844299310102546	0.81017910399045	1.083267522535459	-0.3480583667481946	-0.1391344072439598	-0.3167155409624374	0.5015875837448808	0.5015875837449804	-0.06954444708375869	-0.1743169913081574	0.01964361408465637	0.08015903063543264	1.090436565157993	0.526212971701956	0.437543335839348	-2.84527639279489	0.005882845594020521	-0.5261193271229695	0.6693934694590511	-1.545714659789577	-1.545714659789546	-0.2272548845855605	0.007361536093626881	0.09762447130737366	0.04136201307914766	-0.1758305569320583	0.01004231779928603	0.009142773058195606	-0.05641432828980329	0.01720048232699609	0.009608616688481042	0.1454153282656873	-17.58129052373382	-4.396381783799485	4.19124724340981	-3.43302718863292	-415.9317089751853	-62.94824325374509	-22.16815961870563	0.379892050395575	0.6570668035286901	-0.837745327392556	-0.7477433401878911	0.2584289283622731	-0.122310870793043	1.592306268004634	-0.06730788885112465	-0.06730788885112532	-0.2584008386921817	0.2090446990579165	0.2887191930318103	0.3571817126438263	9.176395367944526e-08	1.444389320567221e-06	-7.236213077769231e-07	2.276080403547104e-07	5.444429644389019e-07	-4.444196266244362e-08	3.38426799619766e-07
